<svg xmlns="http://www.w3.org/2000/svg" viewBox="0 0 17.32 16.96"><path d="M8.66,0A8.7,8.7,0,0,0,5.92,16.94c.44.08.59-.18.59-.41s0-.76,0-1.48c-2.41.52-2.91-1.17-2.91-1.17a2.33,2.33,0,0,0-1-1.27c-.78-.54.06-.53.06-.53A1.82,1.82,0,0,1,4,13a1.84,1.84,0,0,0,2.52.72,1.83,1.83,0,0,1,.55-1.16c-1.92-.22-3.95-1-3.95-4.3A3.32,3.32,0,0,1,4,5.91a3.13,3.13,0,0,1,.08-2.3s.73-.24,2.38.89a8,8,0,0,1,4.34,0c1.65-1.13,2.38-.89,2.38-.89a3.21,3.21,0,0,1,.09,2.3,3.38,3.38,0,0,1,.89,2.33c0,3.34-2,4.08-4,4.29a2.09,2.09,0,0,1,.59,1.61c0,1.16,0,2.1,0,2.39s.15.5.59.41A8.7,8.7,0,0,0,8.66,0Z" style="fill:#fff"/></svg>