<svg xmlns="http://www.w3.org/2000/svg" viewBox="0 0 62.81 22.59"><path d="M15.11,18.25l2.75.83A5.18,5.18,0,0,1,17,21a3.84,3.84,0,0,1-1.48,1.17,5.6,5.6,0,0,1-2.25.4,6.5,6.5,0,0,1-2.7-.48,4.29,4.29,0,0,1-1.82-1.69A5.73,5.73,0,0,1,8,17.3a5.23,5.23,0,0,1,1.34-3.87,5.1,5.1,0,0,1,3.79-1.35,5.19,5.19,0,0,1,3,.77,4.64,4.64,0,0,1,1.64,2.39L15,15.85a2.33,2.33,0,0,0-.31-.68,1.85,1.85,0,0,0-.65-.56,1.89,1.89,0,0,0-.85-.19,1.81,1.81,0,0,0-1.63.86,3.59,3.59,0,0,0-.44,2,3.83,3.83,0,0,0,.51,2.32,1.76,1.76,0,0,0,1.45.62,1.77,1.77,0,0,0,1.36-.5,3.24,3.24,0,0,0,.67-1.47Zm6.42-6h3.14V15.8H28.1V12.25h3.16V22.41H28.1V18.29H24.67v4.12H21.53Z" style="fill:#fff"/><path d="M30.82,17.33a5.26,5.26,0,0,1,1.39-3.88,5.24,5.24,0,0,1,3.86-1.38A5.3,5.3,0,0,1,40,13.43a5.13,5.13,0,0,1,1.38,3.82,6.36,6.36,0,0,1-.6,2.92A4.28,4.28,0,0,1,39,21.94a5.8,5.8,0,0,1-2.83.64A6.53,6.53,0,0,1,33.36,22a4.37,4.37,0,0,1-1.83-1.73A5.73,5.73,0,0,1,30.82,17.33Zm3.14,0a3.43,3.43,0,0,0,.57,2.21,2.17,2.17,0,0,0,3.12,0,3.73,3.73,0,0,0,.56-2.37,3.09,3.09,0,0,0-.58-2.09,2,2,0,0,0-1.57-.66,1.94,1.94,0,0,0-1.52.67A3.36,3.36,0,0,0,34,17.34Zm10.61,0A5.26,5.26,0,0,1,46,13.45a5.22,5.22,0,0,1,3.86-1.38,5.3,5.3,0,0,1,3.91,1.36,5.17,5.17,0,0,1,1.38,3.82,6.23,6.23,0,0,1-.61,2.92,4.25,4.25,0,0,1-1.72,1.77,5.83,5.83,0,0,1-2.83.64A6.53,6.53,0,0,1,47.11,22a4.31,4.31,0,0,1-1.83-1.73A5.73,5.73,0,0,1,44.57,17.33Zm3.14,0a3.43,3.43,0,0,0,.57,2.21,1.9,1.9,0,0,0,1.55.67,1.94,1.94,0,0,0,1.57-.65A3.73,3.73,0,0,0,52,17.2a3.14,3.14,0,0,0-.58-2.09,2,2,0,0,0-1.57-.66,1.91,1.91,0,0,0-1.52.67,3.36,3.36,0,0,0-.58,2.22Z" style="fill:#fff"/><path d="M32.43,7l3-.2a2.27,2.27,0,0,0,.39,1.12,1.68,1.68,0,0,0,1.39.61,1.48,1.48,0,0,0,1-.32.9.9,0,0,0,0-1.43,4.07,4.07,0,0,0-1.61-.59,6.72,6.72,0,0,1-2.94-1.24,2.47,2.47,0,0,1-.89-2,2.59,2.59,0,0,1,.46-1.48A3,3,0,0,1,34.64.4a6.49,6.49,0,0,1,2.5-.4,5,5,0,0,1,3,.73A3.07,3.07,0,0,1,41.32,3l-3,.17a1.62,1.62,0,0,0-.5-1,1.6,1.6,0,0,0-1-.31,1.3,1.3,0,0,0-.81.22.71.71,0,0,0-.28.57.54.54,0,0,0,.23.43A2.55,2.55,0,0,0,37,3.49a12.64,12.64,0,0,1,2.95.9,3,3,0,0,1,1.3,1.12A2.75,2.75,0,0,1,41.66,7a3.25,3.25,0,0,1-.54,1.81,3.53,3.53,0,0,1-1.51,1.25,6.22,6.22,0,0,1-2.45.43c-1.72,0-2.92-.33-3.59-1A3.89,3.89,0,0,1,32.43,7ZM.72,10.34V.18H6A7.5,7.5,0,0,1,8.18.43a2.39,2.39,0,0,1,1.24.93A2.84,2.84,0,0,1,9.9,3,2.73,2.73,0,0,1,8.54,5.47a3.52,3.52,0,0,1-1.1.39,3.06,3.06,0,0,1,.82.38,3.57,3.57,0,0,1,.5.53,3.16,3.16,0,0,1,.44.64l1.53,2.94H7.16L5.48,7.23a2.62,2.62,0,0,0-.57-.79,1.35,1.35,0,0,0-.77-.24H3.86v4.13H.72Zm3.14-6H5.19A4.49,4.49,0,0,0,6,4.16a.79.79,0,0,0,.51-.32A1,1,0,0,0,6.42,2.5a1.94,1.94,0,0,0-1.17-.26H3.86ZM0,19l3-.19A2.23,2.23,0,0,0,3.39,20a1.64,1.64,0,0,0,1.38.63,1.49,1.49,0,0,0,1-.32.94.94,0,0,0,.36-.73.91.91,0,0,0-.34-.7,3.86,3.86,0,0,0-1.61-.59A6.72,6.72,0,0,1,1.27,17a2.45,2.45,0,0,1-.88-2,2.65,2.65,0,0,1,.45-1.47A3,3,0,0,1,2.2,12.48a6.34,6.34,0,0,1,2.5-.4,5.13,5.13,0,0,1,3,.72,3.1,3.1,0,0,1,1.2,2.31l-2.95.17a1.62,1.62,0,0,0-.5-1,1.48,1.48,0,0,0-1-.3,1.19,1.19,0,0,0-.81.23.65.65,0,0,0-.28.57.54.54,0,0,0,.23.43,2.55,2.55,0,0,0,1.06.38,12.64,12.64,0,0,1,2.95.9,3,3,0,0,1,1.3,1.12,3,3,0,0,1,.41,1.5,3.31,3.31,0,0,1-.55,1.8,3.54,3.54,0,0,1-1.51,1.25,6.2,6.2,0,0,1-2.44.43c-1.73,0-2.92-.33-3.59-1A4,4,0,0,1,0,19Z" style="fill:#fff"/><path d="M54.78,12.25h3.13v7.66h4.9v2.5H54.76V12.25Z" style="fill:#fff"/><path d="M53.49,2.65c-2-2.59-6.1-2.77-9.25-.39s-4.14,6.41-2.18,9,6.1,2.77,9.26.39S55.45,5.25,53.49,2.65Zm-2.8,8.17c-2.6,2-6,1.81-7.61-.32s-.81-5.44,1.79-7.4,6-1.81,7.6.32S53.28,8.87,50.69,10.82Z" style="fill:#fff"/><path d="M44.32,6.23l1.14-.79,1.4,2a4,4,0,0,1,.55,1,1.34,1.34,0,0,1,0,.86,1.85,1.85,0,0,1-.71.83,2.57,2.57,0,0,1-1,.46,1.35,1.35,0,0,1-.79-.12,1.84,1.84,0,0,1-.69-.58l1-.91a1.32,1.32,0,0,0,.29.33.44.44,0,0,0,.27.09A.35.35,0,0,0,46,9.34.37.37,0,0,0,46.15,9a1.07,1.07,0,0,0-.24-.53L44.32,6.23Zm3.41,1.26,1-.82a1,1,0,0,0,.42.3.7.7,0,0,0,.65-.13.68.68,0,0,0,.3-.37.4.4,0,0,0-.25-.5l-.1,0a1.77,1.77,0,0,0-.73.19,3.05,3.05,0,0,1-1.37.3A1.13,1.13,0,0,1,46.87,6a1.21,1.21,0,0,1-.22-.65,1.31,1.31,0,0,1,.22-.74,2.64,2.64,0,0,1,.79-.77,2.32,2.32,0,0,1,1.26-.49,1.38,1.38,0,0,1,1,.52l-1,.81a.61.61,0,0,0-.85-.11l0,0a.51.51,0,0,0-.24.3.32.32,0,0,0,0,.27.3.3,0,0,0,.2.1,1,1,0,0,0,.48-.14,6.81,6.81,0,0,1,1.29-.42,1.38,1.38,0,0,1,.75.08,1.09,1.09,0,0,1,.52.45,1.43,1.43,0,0,1,.26.78,1.35,1.35,0,0,1-.22.83,2.72,2.72,0,0,1-.78.77,2.24,2.24,0,0,1-1.54.55,1.69,1.69,0,0,1-1.07-.63Z" style="fill:#fff"/></svg>