<svg xmlns="http://www.w3.org/2000/svg" viewBox="0 0 130.89 27.71"><path d="M73.51,13.61A8.29,8.29,0,0,1,75.09,16h3.36l-1,2.94H73.15c-.09-.09,0-.18-.12-.33-1-2.29-1.87-4.07-5.2-4.16l1-3a19.34,19.34,0,0,0,6-1.49c1.9-.8,4.07-3.27,4.07-4.76-.09-.36-.15-.65-.83-.74a5.9,5.9,0,0,0-1.79.27c-6.09,2.05-10,8.74-13.62,14.18H59.32c2.47-4,6.31-10.82,6.55-14.3,0-.27-.06-.33-.42-.33H62.36l1-2.94H65c1.88,0,3.78.32,3.78,2.94a6.92,6.92,0,0,1-.3,2.05c1.88-1.87,5.95-4.88,9.31-4.88a3.63,3.63,0,0,1,4,3.63,7.21,7.21,0,0,1-1.19,3.51A12.77,12.77,0,0,1,73.51,13.61Z" style="fill:#ffc482;stroke:#496a81;stroke-miterlimit:10;stroke-width:0.3138324022293091px"/><path d="M89.42,18.93H82.94a2.76,2.76,0,0,1-3-2.88,4.89,4.89,0,0,1,.3-1.64,7.43,7.43,0,0,1,6.1-5.5c1.69,0,3.18.68,3.18,2.59,0,1.16-.77,2.73-3.27,4.49h4.1Zm-4.79-6.3a4.45,4.45,0,0,0-1.48,2.26,10.85,10.85,0,0,0,3.36-3.1A2.84,2.84,0,0,0,84.63,12.63Z" style="fill:#ffc482;stroke:#496a81;stroke-miterlimit:10;stroke-width:0.3138324022293091px"/><path d="M93.41,18.93h-3L91.35,16h2.06c1,0,1.51-.39,1.51-1.55A4,4,0,0,0,94.6,13c-.81,1-1.37,1.94-1.37,1.91l-2.38-1.73c-.24.33,4.13-5.5,4.13-5.74l2.65,1.31L96.44,10.4a6.28,6.28,0,0,1,1.43,4A4.21,4.21,0,0,1,93.41,18.93Z" style="fill:#ffc482;stroke:#496a81;stroke-miterlimit:10;stroke-width:0.3138324022293091px"/><path d="M107.74,18.93A4.38,4.38,0,0,1,104.5,18a4.79,4.79,0,0,1-2.71.89,3.15,3.15,0,0,1-3.24-3.12,7.33,7.33,0,0,1,.15-1.34l1.67-5.17h3.09l-2,6.09c0,.09,0,.09,0,.18,0,.33,0,.42.35.42a2.14,2.14,0,0,0,1.91-1.52l1.69-5.17h3.06l-1.93,6.09c0,.09,0,.09,0,.18,0,.27.15.42.45.42h1.75Z" style="fill:#ffc482;stroke:#496a81;stroke-miterlimit:10;stroke-width:0.3138324022293091px"/><path d="M112.23,16h3l-1,2.94h-2.64a2.42,2.42,0,0,1-2.47-2.44v-.15a2.68,2.68,0,0,1,.15-.71l4.87-15h3.1Z" style="fill:#ffc482;stroke:#496a81;stroke-miterlimit:10;stroke-width:0.3138324022293091px"/><path d="M122.31,12.27h-1.57L119.52,16h3.54l-1,2.94h-3.34a2.39,2.39,0,0,1-2.4-2.38,2.3,2.3,0,0,1,.14-.83l1.14-3.45H116l1-2.94h1.64l1.13-3.45h3.09l-1.13,3.45h1.58Z" style="fill:#ffc482;stroke:#496a81;stroke-miterlimit:10;stroke-width:0.3138324022293091px"/><path d="M126.27,18.93h-3l1-2.94h2c1,0,1.52-.39,1.52-1.55a3.8,3.8,0,0,0-.33-1.46c-.8,1-1.37,1.94-1.37,1.91l-2.38-1.73c-.24.33,4.14-5.5,4.14-5.74l2.64,1.31L129.3,10.4a6.28,6.28,0,0,1,1.43,4A4.2,4.2,0,0,1,126.27,18.93Z" style="fill:#ffc482;stroke:#496a81;stroke-miterlimit:10;stroke-width:0.3138324022293091px"/><path d="M12.18,11.75,10.23,9.39c2.45-2.45,5-4.28,5-6.07,0-.25-.28-.31-.75-.31-2.07,0-4,1.64-4.55,2.13-3.23,2.48-6.33,5.64-6.82,9.49,0,1.8.87,2.17,2.2,2.17,2.07,0,4.06-1.46,5.64-2.85a5.61,5.61,0,0,0,.71-1.58l2.88,1.08c-1.95,5.05-4.09,10-7.43,14.26L4.65,25.85A43,43,0,0,0,8.8,19.06a9.08,9.08,0,0,1-3.28.74C2.32,19.8,0,18.22,0,15.06,0,11,3,6.73,6.35,3.94,8.65,2,11.5,0,14.53,0c2.64,0,3.75,1.83,3.75,3.22a5.9,5.9,0,0,1-1,3A25.43,25.43,0,0,1,12.18,11.75Z" style="fill:#496a81"/><path d="M27.55,19h-3a2.56,2.56,0,0,1-1.64-.56,5.12,5.12,0,0,1-2.82.78,3.39,3.39,0,0,1-3.53-3.41,3.81,3.81,0,0,1,.31-1.58c1.73-4,6-5.24,9.88-5.24v3.07a5.62,5.62,0,0,0-.71,0,7.38,7.38,0,0,0-5.89,2.35,1.83,1.83,0,0,0-.53,1.33.51.51,0,0,0,.44.5c1.86,0,2.54-1.89,2.94-3.38l2.91,1L25.22,16h3.32Z" style="fill:#496a81"/><path d="M45.83,19H43.72a2.5,2.5,0,0,1-2.57-2.54,12.67,12.67,0,0,1,.9-3.32l.31-1a2.43,2.43,0,0,0-.62.28A10.6,10.6,0,0,0,37.59,19H34.33l2.17-6.82a7.51,7.51,0,0,0-4.09,4.71L31.73,19H28.54L31.76,9H35l-.24.68A4.24,4.24,0,0,1,37,9a2.6,2.6,0,0,1,2.32,1.52A5.81,5.81,0,0,1,42.73,9,2.58,2.58,0,0,1,45.4,11.9c0,1.55-.66,2.48-1,4.06h2.42Z" style="fill:#496a81"/><path d="M57,19H50.26a2.88,2.88,0,0,1-3.07-3,5,5,0,0,1,.31-1.7c1.39-4.47,5.11-5.74,6.35-5.74,1.77,0,3.32.72,3.32,2.7,0,1.21-.81,2.85-3.41,4.68H58Zm-5-6.57a4.67,4.67,0,0,0-1.55,2.35A11.37,11.37,0,0,0,54,11.59,3,3,0,0,0,52,12.46Z" style="fill:#496a81"/></svg>