<svg xmlns="http://www.w3.org/2000/svg" viewBox="0 0 114.59 55.95"><text transform="translate(24.11 47.78)" style="font-size:26.862640380859375px;fill:#ffc482;stroke:#496a81;stroke-miterlimit:10;stroke-width:0.28346458077430725px;font-family:AirstreamNF, Airstream NF">POKER</text><text transform="translate(0 30.27)" style="font-size:27.985729217529297px;fill:#496a81;font-family:AirstreamNF, Airstream NF">Pointing</text><rect x="82.08" y="1.05" width="17.34" height="25.6" rx="1.04" transform="translate(-0.92 9.03) rotate(-5.67)" style="fill:none;stroke:#496a81;stroke-miterlimit:10;stroke-width:0.7086614173228346px"/><rect x="84.33" y="3.9" width="12.84" height="19.9" rx="0.68" transform="translate(-0.92 9.03) rotate(-5.67)" style="fill:#ffc482;stroke:#496a81;stroke-miterlimit:10;stroke-width:0.7086614173228346px"/><rect x="93.9" y="3.81" width="17.34" height="25.6" rx="1.04" transform="translate(8.8 -28.15) rotate(16.32)" style="fill:#fff;stroke:#496a81;stroke-miterlimit:10;stroke-width:0.7086614173228346px"/><path d="M98.73,11.26a3.1,3.1,0,0,1,2.47-.3A3.42,3.42,0,0,1,103.35,13a3.7,3.7,0,0,1,3.21-.5,3.15,3.15,0,0,1,1.76,1.54,3.6,3.6,0,0,1-.06,2.8c-1.21,3.33-6.54,3.95-7.16,4-.39-.31-4.44-3.62-3.8-7.12a3.56,3.56,0,0,1,1.43-2.52Z" style="fill:#ffc482;stroke:#496a81;stroke-miterlimit:10;stroke-width:0.7086614173228346px"/></svg>