<svg xmlns="http://www.w3.org/2000/svg" viewBox="0 0 114.59 47.84"><path d="M38.77,42.46c-1.34,1.72-3.14,1.91-5.24,1.91-.72,0-1.45,0-2.2,0l.86-2.69h2.58c2.15,0,4-3.7,4-6.2,0-.86-.1-1.13-.4-1.13A2.52,2.52,0,0,0,37,35c-4.25,3.46-6.93,8.46-9.78,12.68H24.11c.08-.11.19-.35.29-.46.57-.94,3.55-5.16,4.92-9a13.67,13.67,0,0,0,.51-3.79H26.47l.86-2.66h1.61c1.72,0,3.44.3,3.44,3A6.86,6.86,0,0,1,32.27,36c1.1-1.37,3.79-4.27,6.21-4.27,2.25,0,2.9,1.85,2.9,3.46a4.44,4.44,0,0,1-.06,1.05A12,12,0,0,1,38.77,42.46Z" style="fill:#ffc482;stroke:#496a81;stroke-miterlimit:10;stroke-width:0.28345999121665955px"/><path d="M60.1,38.91h-3C57,43.4,52.71,47.7,48.2,47.7A6.59,6.59,0,0,1,41.51,41c0-4.6,4.17-9.14,9-9.14a6.56,6.56,0,0,1,6.26,4.44H61Zm-9.24-2.22a2.83,2.83,0,0,1,.64-2.13,4.7,4.7,0,0,0-1-.08A6.77,6.77,0,0,0,44.17,41a3.91,3.91,0,0,0,4,4.08,6.78,6.78,0,0,0,6.28-6.13C53,38.91,50.86,38.78,50.86,36.69Z" style="fill:#ffc482;stroke:#496a81;stroke-miterlimit:10;stroke-width:0.28345999121665955px"/><path d="M60.8,47.7H58l5.16-15.88H66Zm5.08-5.83L70.5,47.7H67.09L63.7,43.4a3,3,0,0,1-.78-1.56,2.44,2.44,0,0,1,.94-1.72l8.28-8.3H75.9Z" style="fill:#ffc482;stroke:#496a81;stroke-miterlimit:10;stroke-width:0.28345999121665955px"/><path d="M88,34.19c0,2.31-3.41,4.48-4.91,5.56l-1.64-2.12.67-.46c.83-.56,3.17-2.36,3.17-2.93,0-.35-.8-.4-1.1-.4A8,8,0,0,0,80.73,35c-.35.21-2.07,1.23-2.07,2.25a.51.51,0,0,0,0,.22l2,3.49C78.88,42.41,77,43.67,75.17,45h11.2l-.86,2.66H75.15c-1.94,0-3-1.08-3-2.34,0-2,2.49-3.25,5.07-5.1L77.13,40A5,5,0,0,1,76,37.28c0-3.2,4.62-6.05,8.19-6.05C86.13,31.23,88,32.15,88,34.19Z" style="fill:#ffc482;stroke:#496a81;stroke-miterlimit:10;stroke-width:0.28345999121665955px"/><path d="M99.72,42.92A7.39,7.39,0,0,1,101.15,45h3l-.89,2.66H99.4c-.08-.08,0-.16-.11-.3-.86-2.07-1.69-3.68-4.7-3.76L95.45,41a17.38,17.38,0,0,0,5.45-1.35c1.72-.72,3.68-3,3.68-4.29-.08-.33-.13-.59-.75-.68a5.28,5.28,0,0,0-1.61.25c-5.5,1.85-9,7.89-12.3,12.81h-3c2.23-3.6,5.7-9.78,5.91-12.92,0-.24,0-.3-.38-.3H89.65l.86-2.66h1.56c1.69,0,3.41.3,3.41,2.66a6.3,6.3,0,0,1-.27,1.86c1.69-1.7,5.37-4.41,8.41-4.41a3.28,3.28,0,0,1,3.6,3.28,6.5,6.5,0,0,1-1.08,3.17A11.56,11.56,0,0,1,99.72,42.92Z" style="fill:#ffc482;stroke:#496a81;stroke-miterlimit:10;stroke-width:0.28345999121665955px"/><path d="M15.28,24.73c-1.4,1.79-3.27,2-5.46,2-.75,0-1.51,0-2.29,0l.89-2.8h2.69c2.24,0,4.14-3.86,4.14-6.46,0-.9-.11-1.18-.42-1.18a2.67,2.67,0,0,0-1.37.73C9,20.59,6.24,25.79,3.27,30.19H0a3.56,3.56,0,0,1,.31-.48c.59-1,3.69-5.37,5.12-9.35A13.84,13.84,0,0,0,6,16.42H2.46l.9-2.77H5c1.79,0,3.58.31,3.58,3.1A7.51,7.51,0,0,1,8.51,18c1.14-1.43,3.94-4.45,6.46-4.45,2.35,0,3,1.93,3,3.61a4.84,4.84,0,0,1,0,1.09A12.49,12.49,0,0,1,15.28,24.73Z" style="fill:#496a81"/><path d="M27.09,26.18H25.75a5.21,5.21,0,0,1-4.82,4,4,4,0,0,1-4-4.14,5.18,5.18,0,0,1,5-5.09,3.89,3.89,0,0,1,3.63,2.35H28Zm-6.18-2.09A2.51,2.51,0,0,0,19.73,26a1.25,1.25,0,0,0,1.2,1.37,2.23,2.23,0,0,0,1.82-1.23A2.35,2.35,0,0,1,20.91,24.09Z" style="fill:#496a81"/><path d="M32.74,30.21H30.42a2.3,2.3,0,0,1-2.52-2.43,2.54,2.54,0,0,1,.14-.67l1.9-6h2.94l-2,6.29h2.77Zm-.31-11.36a1.92,1.92,0,0,1,0-3.83,1.85,1.85,0,0,1,1.91,1.9A1.91,1.91,0,0,1,32.43,18.85Z" style="fill:#496a81"/><path d="M44.22,30.21H42.29A2.26,2.26,0,0,1,40,27.92c0-.08,0-.22.06-.42l1-3.44a6.2,6.2,0,0,0-3.7,4.25l-.61,1.9H33.78l2.94-9.06h2.91l-.2.59a4.46,4.46,0,0,1,2-.56c1.68,0,2.41,1,2.41,2.68a4.89,4.89,0,0,1-.28,1.54l-.62,2h2.24Z" style="fill:#496a81"/><path d="M51.6,24H50.12L49,27.44H52.3l-.89,2.77H48.27A2.24,2.24,0,0,1,46,28a2.07,2.07,0,0,1,.14-.79L47.21,24H45.64l.93-2.77h1.54l1.06-3.25h2.91L51,21.18H52.5Z" style="fill:#496a81"/><path d="M57.68,30.21H55.35a2.29,2.29,0,0,1-2.51-2.43,2.16,2.16,0,0,1,.14-.67l1.9-6h2.94l-2,6.29h2.77Zm-.31-11.36a1.92,1.92,0,0,1,0-3.83,1.85,1.85,0,0,1,1.9,1.9A1.91,1.91,0,0,1,57.37,18.85Z" style="fill:#496a81"/><path d="M69.15,30.21H67.22a2.25,2.25,0,0,1-2.32-2.29,3.64,3.64,0,0,1,0-.42l1-3.44a6.2,6.2,0,0,0-3.69,4.25l-.62,1.9H58.71l2.94-9.06h2.91l-.2.59a4.54,4.54,0,0,1,2-.56c1.68,0,2.41,1,2.41,2.68a4.62,4.62,0,0,1-.28,1.54l-.61,2h2.23Z" style="fill:#496a81"/><path d="M80.2,24c-.42,0-.81,0-1.26,0a15.52,15.52,0,0,0-3,.48c-1.48.45-3,1.2-3,2.57a.56.56,0,0,0,.59.56c.7,0,2.52-.3,3.69-3.1l2.66.78L77.6,32.51a8.79,8.79,0,0,1-7.75,5.74V35.53a.4.4,0,0,1,.2,0c2,0,4.33-2,4.92-3.89l.59-1.82a4.67,4.67,0,0,1-2,.42,3.11,3.11,0,0,1-3.28-3c0-4.9,5.93-6,10-6Z" style="fill:#496a81"/><path d="M84.32,27.7a1.39,1.39,0,0,1-1.39-1.26L80.61,3a1.4,1.4,0,0,1,1.25-1.53L97,0a1.36,1.36,0,0,1,1,.31,1.38,1.38,0,0,1,.51.94l2.32,23.4a1.38,1.38,0,0,1-.31,1,1.44,1.44,0,0,1-.94.5L84.46,27.7ZM97.18.71h-.07L81.93,2.22a.69.69,0,0,0-.62.75l2.33,23.4a.63.63,0,0,0,.25.47.64.64,0,0,0,.5.15l15.18-1.5a.71.71,0,0,0,.46-.25.67.67,0,0,0,.15-.51L97.86,1.33a.69.69,0,0,0-.25-.47A.66.66,0,0,0,97.18.71Z" style="fill:#496a81"/><rect x="84.33" y="3.9" width="12.84" height="19.9" rx="0.68" transform="translate(-0.92 9.03) rotate(-5.67)" style="fill:#ffc482"/><path d="M86,24.68a1,1,0,0,1-1-.93L83.09,5.3a1.08,1.08,0,0,1,.23-.76,1,1,0,0,1,.7-.37L95.44,3a1,1,0,0,1,.76.23,1,1,0,0,1,.37.7L98.4,22.41a1.05,1.05,0,0,1-.22.76,1.08,1.08,0,0,1-.7.37L86.05,24.67Zm9.6-20.94h0L84.09,4.87a.33.33,0,0,0-.29.36l1.83,18.45A.34.34,0,0,0,86,24l11.43-1.14a.39.39,0,0,0,.22-.11.36.36,0,0,0,.07-.24L95.87,4a.32.32,0,0,0-.32-.29Z" style="fill:#496a81"/><rect x="93.9" y="3.81" width="17.34" height="25.6" rx="1.04" transform="translate(8.8 -28.15) rotate(16.32)" style="fill:#fff"/><path d="M106.58,31.44a1.32,1.32,0,0,1-.39-.06h0L91.55,27.1a1.41,1.41,0,0,1-1-1.74L97.21,2.79A1.35,1.35,0,0,1,97.88,2a1.4,1.4,0,0,1,1.06-.12l14.64,4.29a1.35,1.35,0,0,1,.83.67,1.4,1.4,0,0,1,.12,1.06l-6.61,22.57A1.41,1.41,0,0,1,106.58,31.44Zm-.19-.74a.68.68,0,0,0,.85-.47l6.61-22.57a.69.69,0,0,0-.47-.85L98.74,2.52a.69.69,0,0,0-.85.47L91.28,25.56a.69.69,0,0,0,.47.86l14.64,4.28Z" style="fill:#496a81"/><path d="M98.73,11.26a3.1,3.1,0,0,1,2.47-.3A3.42,3.42,0,0,1,103.35,13a3.7,3.7,0,0,1,3.21-.5,3.15,3.15,0,0,1,1.76,1.54,3.6,3.6,0,0,1-.06,2.8c-1.21,3.33-6.54,3.95-7.16,4-.39-.31-4.44-3.62-3.8-7.12a3.56,3.56,0,0,1,1.43-2.52Z" style="fill:#ffc482"/><path d="M101,21.27l-.12-.09c-.47-.38-4.6-3.78-3.93-7.46A3.92,3.92,0,0,1,98.54,11h0a3.51,3.51,0,0,1,2.76-.35,3.66,3.66,0,0,1,2.22,1.92,3.9,3.9,0,0,1,3.16-.32,3.48,3.48,0,0,1,2,1.72,4,4,0,0,1,0,3.08c-1.24,3.41-6.42,4.13-7.45,4.24Zm-2.08-9.71a3.23,3.23,0,0,0-1.27,2.29c-.56,3.07,2.79,6,3.56,6.68,1.22-.15,5.67-.88,6.72-3.77a3.3,3.3,0,0,0,.07-2.53,2.78,2.78,0,0,0-1.56-1.36,3.33,3.33,0,0,0-2.88.46l-.38.27-.16-.44a3,3,0,0,0-1.92-1.86,2.78,2.78,0,0,0-2.18.26Z" style="fill:#496a81"/></svg>